<?xml version="1.0" encoding="iso-8859-1"?>
<!-- Generator: Adobe Illustrator 16.0.0, SVG Export Plug-In . SVG Version: 6.00 Build 0)  -->
<!DOCTYPE svg PUBLIC "-//W3C//DTD SVG 1.1//EN" "http://www.w3.org/Graphics/SVG/1.1/DTD/svg11.dtd">
<svg version="1.1" id="Capa_1" xmlns="http://www.w3.org/2000/svg" xmlns:xlink="http://www.w3.org/1999/xlink" x="0px" y="0px"
	 width="535.146px" fill="#484848" height="535.146px" viewBox="0 0 535.146 535.146" style="enable-background:new 0 0 535.146 535.146;"
	 xml:space="preserve">
<g>
	<path d="M55.073,205.904c0-33.803,27.397-61.2,61.2-61.2s61.2,27.397,61.2,61.2s-27.397,61.199-61.2,61.199
		S55.073,239.707,55.073,205.904z M211.473,355.504c0-37.557-30.443-68-68-68h-54.4c-37.556,0-68,30.443-68,68v27.2h190.4V355.504z
		 M357.673,205.904c0,33.803,27.398,61.199,61.201,61.199s61.199-27.396,61.199-61.199s-27.396-61.2-61.199-61.2
		S357.673,172.102,357.673,205.904z M446.073,287.504h-54.4c-37.557,0-68,30.443-68,68v27.2h190.4v-27.2
		C514.073,317.947,483.63,287.504,446.073,287.504z M339.687,475.993c-18.277,4.597-38.486,6.93-60.363,6.93
		c-96.716,0-129.472-44.73-131.036-46.961c-5.243-7.698-15.722-9.765-23.487-4.583c-7.813,5.208-9.921,15.762-4.712,23.575
		c1.686,2.529,42.663,61.969,159.235,61.969c28.785,0,55.291-3.659,79.016-10.84l18.014,29.063l48.07-89.624l-101.654,3.169
		L339.687,475.993z M194.208,59.16c18.278-4.597,38.495-6.936,60.364-6.936c96.716,0,129.472,44.73,131.037,46.961
		c3.283,4.828,8.629,7.439,14.076,7.439c3.242,0,6.514-0.925,9.41-2.856c7.812-5.208,9.922-15.762,4.713-23.576
		c-1.688-2.529-42.664-61.968-159.236-61.968c-28.777,0-55.284,3.658-79.009,10.839L157.549,0L109.48,89.624l101.646-3.169
		L194.208,59.16z"/>
</g>
<g>
</g>
<g>
</g>
<g>
</g>
<g>
</g>
<g>
</g>
<g>
</g>
<g>
</g>
<g>
</g>
<g>
</g>
<g>
</g>
<g>
</g>
<g>
</g>
<g>
</g>
<g>
</g>
<g>
</g>
</svg>
