<?xml version="1.0" encoding="iso-8859-1"?>
<!-- Generator: Adobe Illustrator 19.0.0, SVG Export Plug-In . SVG Version: 6.00 Build 0)  -->
<svg version="1.1" id="Capa_1" xmlns="http://www.w3.org/2000/svg" xmlns:xlink="http://www.w3.org/1999/xlink" x="0px" y="0px"
	 viewBox="0 0 512.001 512.001" style="enable-background:new 0 0 512.001 512.001;" xml:space="preserve">
<path style="fill:#F44D4D;" d="M393.875,196.858c-12.609,103.408-122.482,216.074-180.77,176.415
	c-2.027-1.376-4.2-2.431-6.444-3.165c-7.468-2.472-15.816-1.479-22.881,2.576c-8.379,4.81-17.905,6.62-28.104,5.875
	C96.446,374.328,14.491,284.357,3.827,196.857c-8.192-67.173,24.65-115.779,75.231-132.981
	c34.218-11.668,76.555-8.937,119.793,12.123c15.537-7.572,30.949-12.764,45.917-15.785c67.194-13.551,125.306,16.923,144.039,74.735
	C394.672,153.072,396.678,173.873,393.875,196.858z"/>
<path style="fill:#DB3B3B;" d="M388.807,134.949c-27.132-34.61-74.305,59.246-79.975,121.521c-0.504,5.53-6.555,8.698-11.386,5.959
	c-0.052-0.03-0.104-0.059-0.156-0.089c-36.422-20.711-72.198-13.809-102.266,38.804c-0.055,0.096-0.11,0.191-0.166,0.287
	c-7.842,13.546-26.324,16.329-37.928,5.824c-43.853-39.7-85.707-100.124-71.781-170.424c10.747-41.241,53.923-55.092,92.94-34.797
	c34.063,17.729,61.008-18.04,66.677-41.82c-14.968,3.02-30.38,8.213-45.917,15.785c-43.238-21.06-85.575-23.791-119.793-12.123
	C28.475,81.077-4.367,129.683,3.826,196.857C16.332,299.427,126.805,405.4,183.779,372.682c7.065-4.055,15.412-5.048,22.881-2.576
	c2.245,0.734,4.417,1.789,6.444,3.165c58.288,39.659,168.161-73.007,180.77-176.415
	C396.678,173.873,394.672,153.072,388.807,134.949z"/>
<path style="fill:#FCE381;" d="M196.797,103.181c-3.411,0-6.534-2.263-7.473-5.712c-0.171-0.625-4.145-15.537-1.843-34.706
	c3.084-25.694,15.958-46.932,37.23-61.417c3.541-2.411,8.367-1.496,10.778,2.046c2.412,3.542,1.496,8.367-2.046,10.778
	c-42.067,28.645-29.69,77.188-29.143,79.24c1.102,4.132-1.345,8.387-5.474,9.5C198.148,103.094,197.466,103.181,196.797,103.181z"/>
<path style="fill:#FCB452;" d="M335.785,449.143c-20.988,11.999-43.806,23.988-66.046,34.238c-5.1,2.348-10.168,4.613-15.185,6.755
	c-45.182,19.343-85.575,29.501-100.036,15.03c-19.933-19.922,6.848-89.009,40-152.056c2.524-4.81,5.089-9.578,7.665-14.285
	c2.772-5.058,5.565-10.044,8.358-14.926c39.555-69.211,88.989-59.322,136.778-11.533
	C395.107,360.154,404.996,409.587,335.785,449.143z"/>
<path style="fill:#55C43D;" d="M368.73,335.887l-21.722-21.722l-23.222-23.212c0-63.729,55.94-179.084,83.951-127.996
	c0,0,44.5-24.722,79.1,9.889c10.065,10.065,15.112,20.957,17.202,31.363c2.4,11.864,0.952,23.077-1.272,31.652
	c-2.524,9.754-6.041,16.085-6.041,16.085c0.062,0.031,0.124,0.072,0.186,0.103C547.535,280.092,432.376,335.887,368.73,335.887z"/>
<path style="fill:#45AF2C;" d="M504.038,204.212c-17.202-31.363-101.008-8.958-119.627,50.002
	c-9.982,31.611-25.322,49.847-37.404,59.953l-23.222-23.212c0-63.729,55.94-179.084,83.951-127.996c0,0,44.5-24.722,79.1,9.889
	C496.901,182.914,501.948,193.806,504.038,204.212z"/>
<g>
	<path style="fill:#E26D37;" d="M154.508,505.171c-23.069-23.069,16.486-112.055,56.034-181.269s88.986-59.318,136.769-11.534
		c-21.27-21.255-54.242-14.687-102.019,46.285C197.53,419.624,144.268,494.873,154.508,505.171z"/>
	<path style="fill:#E26D37;" d="M269.739,483.381c-5.1,2.348-10.168,4.613-15.185,6.755l-25.022-25.022
		c-3.031-3.02-3.031-7.934,0-10.965s7.944-3.031,10.975,0L269.739,483.381z"/>
	<path style="fill:#E26D37;" d="M239.462,387.079c-1.521,1.51-3.507,2.265-5.493,2.265c-1.986,0-3.972-0.755-5.482-2.265
		l-33.969-33.969c2.524-4.81,5.089-9.578,7.665-14.285l37.279,37.279C242.493,379.135,242.493,384.048,239.462,387.079z"/>
	<path style="fill:#E26D37;" d="M277.913,387.149c-1.985,0-3.971-0.757-5.485-2.273l-36.25-36.25c-3.03-3.03-3.03-7.942,0-10.971
		c3.03-3.03,7.942-3.03,10.971,0l36.25,36.25c3.03,3.03,3.03,7.942,0,10.971C281.884,386.392,279.898,387.149,277.913,387.149z"/>
	<path style="fill:#E26D37;" d="M356.514,406.293c-1.985,0-3.971-0.757-5.485-2.273l-36.249-36.25c-3.03-3.03-3.03-7.942,0-10.971
		c3.03-3.03,7.942-3.03,10.971,0l36.249,36.25c3.03,3.03,3.03,7.942,0,10.971C360.485,405.536,358.499,406.293,356.514,406.293z"/>
</g>
<path style="fill:#45AF2C;" d="M496.726,251.946c0.062,0.031,0.124,0.072,0.186,0.103c-54.626,6.879-101.36,42.534-101.877,42.938
	c-1.417,1.086-3.082,1.614-4.737,1.614c-2.327,0-4.624-1.034-6.144-3.01c-2.627-3.393-1.996-8.265,1.396-10.882
	c2.348-1.821,55.143-42.079,117.217-46.848C500.243,245.616,496.726,251.946,496.726,251.946z"/>
<g>
</g>
<g>
</g>
<g>
</g>
<g>
</g>
<g>
</g>
<g>
</g>
<g>
</g>
<g>
</g>
<g>
</g>
<g>
</g>
<g>
</g>
<g>
</g>
<g>
</g>
<g>
</g>
<g>
</g>
</svg>
