<?xml version="1.0" encoding="iso-8859-1"?>
<!-- Generator: Adobe Illustrator 19.0.0, SVG Export Plug-In . SVG Version: 6.00 Build 0)  -->
<svg version="1.1" id="Capa_1" xmlns="http://www.w3.org/2000/svg" xmlns:xlink="http://www.w3.org/1999/xlink" x="0px" y="0px"
	 viewBox="0 0 464 464" style="enable-background:new 0 0 464 464;" xml:space="preserve">
<path style="fill:#FF8800;" d="M232,48h-16V32c0-4.418-3.582-8-8-8h-72V8h72c13.255,0,24,10.745,24,24V48z"/>
<path style="fill:#763A02;" d="M72,80h80v72H72V80z"/>
<path style="fill:#FF8800;" d="M0,448V240c0-61.856,50.144-112,112-112s112,50.144,112,112v208c0,8.837-7.163,16-16,16H16
	C7.163,464,0,456.837,0,448z"/>
<path style="fill:#FADBB7;" d="M0,240h224v160H0V240z"/>
<path style="fill:#FEBD33;" d="M208,352c0-22.091,17.909-40,40-40h3.072c3.271-0.001,6.53,0.399,9.704,1.192l0.472,0.12
	c17.768,4.442,36.013,6.688,54.328,6.688h24.848c18.315,0,36.56-2.246,54.328-6.688l0.472-0.12c3.174-0.793,6.433-1.193,9.704-1.192
	H408c22.091,0,40,17.909,40,40s-17.909,40-40,40h-3.072c-3.271,0.001-6.53-0.399-9.704-1.192l-0.472-0.12
	c-17.768-4.442-36.013-6.688-54.328-6.688h-24.848c-18.315,0-36.56,2.246-54.328,6.688l-0.472,0.12
	c-3.174,0.793-6.433,1.193-9.704,1.192H248C225.909,392,208,374.091,208,352z"/>
<path style="fill:#FF8800;" d="M96,32h32v48H96V32z"/>
<path style="fill:#763A02;" d="M72,0h80v32H72V0z"/>
<path style="fill:#33BC00;" d="M192,384h272v32H192V384z"/>
<path style="fill:#008100;" d="M208,416c0,26.51,21.49,48,48,48l0,0h144c26.51,0,48-21.49,48-48l0,0H208z"/>
<path style="fill:#E6E6E6;" d="M296,176L296,176c22.091,0,40,17.909,40,40l0,0c0,22.091-17.909,40-40,40l0,0
	c-22.091,0-40-17.909-40-40l0,0C256,193.909,273.909,176,296,176z"/>
<path style="fill:#CCCCCC;" d="M384,232L384,232c13.255,0,24,10.745,24,24l0,0c0,13.255-10.745,24-24,24l0,0
	c-13.255,0-24-10.745-24-24l0,0C360,242.745,370.745,232,384,232z"/>
<path style="fill:#F2F2F2;" d="M384,160L384,160c8.837,0,16,7.163,16,16l0,0c0,8.837-7.163,16-16,16l0,0c-8.837,0-16-7.163-16-16
	l0,0C368,167.163,375.163,160,384,160z"/>
<g>
	<path style="fill:#FEBD33;" d="M56,264h112v16H56V264z"/>
	<path style="fill:#FEBD33;" d="M88,296h48v16H88V296z"/>
	<path style="fill:#FEBD33;" d="M72,328h80v16H72V328z"/>
	<path style="fill:#FEBD33;" d="M56,360h48v16H56V360z"/>
	<path style="fill:#FEBD33;" d="M120,360h48v16h-48V360z"/>
</g>
<g>
</g>
<g>
</g>
<g>
</g>
<g>
</g>
<g>
</g>
<g>
</g>
<g>
</g>
<g>
</g>
<g>
</g>
<g>
</g>
<g>
</g>
<g>
</g>
<g>
</g>
<g>
</g>
<g>
</g>
</svg>
